<?xml version="1.0" encoding="UTF-8"?>
<svg version="1.1" xmlns="http://www.w3.org/2000/svg" width="1254" height="1254">
<path d="M0 0 C413.82 0 827.64 0 1254 0 C1254 413.82 1254 827.64 1254 1254 C840.18 1254 426.36 1254 0 1254 C0 840.18 0 426.36 0 0 Z " fill="#FDFDFD" transform="translate(0,0)"/>
<path d="M0 0 C2.18890499 -0.00271312 4.37780907 -0.00627585 6.56671143 -0.01062012 C12.48571856 -0.01970546 18.40465566 -0.0162165 24.32366395 -0.00986195 C30.52548547 -0.00478518 36.72730116 -0.00949776 42.92912292 -0.01263428 C53.33671136 -0.01626767 63.74427136 -0.01148983 74.15185547 -0.00195312 C84.85174415 0.0077382 95.55157635 0.00786816 106.25146484 -0.00195312 C117.92239353 -0.01262302 129.5932933 -0.01663855 141.26422614 -0.0107286 C147.43578845 -0.00761118 153.60731891 -0.00719362 159.77887917 -0.01380157 C165.57621563 -0.01957602 171.37346462 -0.01557626 177.17079163 -0.00401306 C179.29846743 -0.00136764 181.42615059 -0.00212956 183.55382347 -0.00653839 C186.45674299 -0.01199945 189.35938172 -0.00515292 192.26228333 0.00482178 C193.10498443 0.00036033 193.94768553 -0.00410111 194.81592304 -0.00869775 C199.41475736 0.02197543 203.03608008 0.55690819 207.37573242 2.25878906 C209.20716413 2.6429687 211.04058103 3.01778977 212.87573242 3.38378906 C230.38743368 7.75630285 247.21270509 21.89737271 256.44824219 37.14575195 C263.57956485 49.34559064 268.70240438 62.16359471 268.63642883 76.4094696 C268.64025438 77.29734706 268.64407993 78.18522452 268.6480214 79.10000736 C268.65829113 82.05753687 268.6543707 85.01487006 268.65039062 87.97241211 C268.65474053 90.10025715 268.65992461 92.22810062 268.6658783 94.35594177 C268.67925204 100.12476967 268.67984858 105.89353198 268.677315 111.66237235 C268.67624382 116.48557587 268.6811326 121.3087662 268.68592042 126.13196689 C268.69701078 137.51726859 268.69745617 148.90253731 268.69140625 160.2878418 C268.68537112 172.01322147 268.69766691 183.73848101 268.71897632 195.46384019 C268.73662315 205.54650691 268.74258867 215.6291355 268.73933858 225.71181709 C268.73752992 231.72661436 268.74011991 237.74132601 268.75405312 243.75610924 C268.76667637 249.4172097 268.76464485 255.0781238 268.75164223 260.73922157 C268.74928638 262.80912973 268.75197528 264.87905119 268.76026535 266.94894409 C268.85475779 292.39030118 262.64523798 312.67910514 244.37573242 331.25878906 C243.68866211 331.95875 243.0015918 332.65871094 242.29370117 333.37988281 C228.55802014 346.45298925 209.76170016 353.59623401 190.89720154 353.5262146 C189.98608504 353.53074571 189.07496854 353.53527683 188.13624245 353.53994524 C185.10591236 353.55252995 182.07576336 353.5509727 179.04541016 353.54931641 C176.86317211 353.55530549 174.68093617 353.5621119 172.498703 353.56967163 C166.58511572 353.58730331 160.67158637 353.59202591 154.75797534 353.5933032 C151.05733883 353.59472733 147.35671693 353.59900196 143.65608406 353.60429764 C130.06094732 353.62374535 116.46585603 353.63082939 102.87070639 353.62914677 C91.51667771 353.62828461 80.16282141 353.65102862 68.80883449 353.68088186 C58.46538023 353.70710189 48.12198449 353.71775938 37.77849728 353.71648371 C31.6110047 353.71597563 25.44367196 353.72157338 19.27621269 353.74283981 C13.46895479 353.76231793 7.66200761 353.76228143 1.85473824 353.74780655 C-0.26551649 353.74572897 -2.38579116 353.75035589 -4.50601196 353.76252747 C-19.75153401 353.84431327 -34.26369388 352.89534194 -47.99926758 345.50878906 C-48.65934814 345.16517334 -49.31942871 344.82155762 -49.99951172 344.4675293 C-55.76835299 341.36893823 -60.7961281 337.68881879 -65.62426758 333.25878906 C-66.3796582 332.59492187 -67.13504883 331.93105469 -67.91333008 331.24707031 C-82.00974957 318.14369756 -90.70115322 299.32952936 -91.74029374 280.11316919 C-91.93449633 273.96285486 -91.90751848 267.81039095 -91.89892578 261.65771484 C-91.90327955 259.59001482 -91.9084649 257.52231641 -91.91441345 255.45462036 C-91.92774276 249.86777392 -91.92838893 244.28099538 -91.92585015 238.69413614 C-91.92477637 234.0174604 -91.92967416 229.34079816 -91.93445557 224.66412532 C-91.94552965 213.62486873 -91.94599991 202.58564617 -91.93994141 191.54638672 C-91.93390202 180.18562193 -91.94621664 168.824981 -91.96751148 157.46423733 C-91.98516511 147.68380706 -91.99112293 137.90341607 -91.98787373 128.12297046 C-91.98606683 122.29320012 -91.98863773 116.46351816 -92.00258827 110.63376236 C-92.01522344 105.14907061 -92.01316893 99.66457108 -92.00017738 94.17988205 C-91.99782446 92.17650536 -92.00049977 90.1731149 -92.00880051 88.16975403 C-92.10229873 63.83414521 -86.59723081 42.59292283 -69.62426758 24.25878906 C-59.04075981 13.95976483 -47.09444528 5.89789216 -32.62426758 2.25878906 C-31.97546285 2.09085468 -31.32665812 1.9229203 -30.65819263 1.749897 C-20.56530225 -0.47584054 -10.27544984 -0.02140301 0 0 Z " fill="#0157F2" transform="translate(536.624267578125,314.7412109375)"/>
<path d="M0 0 C0.94912262 -0.00807175 1.89824524 -0.01614349 2.87612915 -0.02445984 C4.89542808 -0.03832834 6.91475072 -0.04903804 8.93408203 -0.05688477 C11.99168216 -0.07395424 15.04816017 -0.11779697 18.10546875 -0.16210938 C30.4917131 -0.26142721 42.25270772 -0.27567517 51.734375 8.86328125 C55.07539618 12.97530732 57.4570633 17.58919236 59.9453125 22.2421875 C63.16741278 28.24555955 66.672841 34.07619541 70.1640625 39.92578125 C71.55321721 42.25974323 72.94081393 44.59462928 74.328125 46.9296875 C74.85758224 47.82046997 74.85758224 47.82046997 75.3977356 48.72924805 C79.47290363 55.59079769 83.50677657 62.47647464 87.5390625 69.36328125 C88.26226974 70.59791133 88.98549545 71.83253059 89.70874023 73.06713867 C92.22409424 77.36149099 94.73871077 81.65627421 97.25146484 85.95214844 C99.68696555 90.11512634 102.12961358 94.27354921 104.59082031 98.42138672 C105.33166545 99.6755654 106.06770323 100.93259189 106.79980469 102.19189453 C107.89047604 104.06756841 108.99440612 105.93480459 110.1015625 107.80078125 C111.02775391 109.38052734 111.02775391 109.38052734 111.97265625 110.9921875 C112.80990234 112.10400391 112.80990234 112.10400391 113.6640625 113.23828125 C114.6540625 113.23828125 115.6440625 113.23828125 116.6640625 113.23828125 C118.29672332 111.58702876 118.29672332 111.58702876 119.80859375 109.36328125 C120.40349609 108.54214844 120.99839844 107.72101563 121.61132812 106.875 C122.22685547 106.00488281 122.84238281 105.13476562 123.4765625 104.23828125 C124.69113351 102.55058493 125.90597481 100.86308311 127.12109375 99.17578125 C127.71446533 98.34828369 128.30783691 97.52078613 128.91918945 96.66821289 C132.29595357 91.9656897 132.29595357 91.9656897 133.8828125 89.796875 C134.33205078 89.17868896 134.78128906 88.56050293 135.24414062 87.92358398 C138.32725471 84.26424139 142.12406581 81.75161348 146.6640625 80.23828125 C148.42814378 80.15028654 150.19540016 80.12063868 151.96166992 80.12475586 C153.04256393 80.12483139 154.12345795 80.12490692 155.23710632 80.12498474 C156.40280655 80.13014603 157.56850677 80.13530731 158.76953125 80.140625 C159.96387283 80.14203995 161.15821442 80.1434549 162.38874817 80.14491272 C166.20971158 80.15051775 170.03061675 80.16307114 173.8515625 80.17578125 C176.43945228 80.1807956 179.02734298 80.18535862 181.61523438 80.18945312 C187.96486368 80.20048882 194.31445893 80.21723189 200.6640625 80.23828125 C201.3240625 81.55828125 201.9840625 82.87828125 202.6640625 84.23828125 C187.6171875 101.79296875 187.6171875 101.79296875 186.13745117 103.51928711 C185.14797708 104.67370088 184.15855728 105.82816118 183.16918945 106.98266602 C180.65702064 109.91400627 178.14390614 112.8445257 175.62890625 115.7734375 C164.68115223 128.52582452 153.85177772 141.36262265 143.20800781 154.37060547 C142.20844534 155.57975362 141.19798099 156.7800055 140.17480469 157.96923828 C135.94750289 162.88896908 135.53860498 166.06441729 135.453125 172.46875 C135.42503771 173.92644316 135.39637314 175.38412529 135.3671875 176.84179688 C135.3261047 179.12800564 135.28919892 181.41401269 135.26269531 183.70043945 C135.01367145 203.49139614 135.01367145 203.49139614 127.6640625 211.23828125 C125.89203962 212.84503775 124.08469575 214.40366746 122.265625 215.95703125 C118.8472796 218.95449929 115.54082396 222.06414914 112.2265625 225.17578125 C95.31123588 241.02343255 95.31123588 241.02343255 90.7890625 241.61328125 C87.6640625 241.23828125 87.6640625 241.23828125 85.50088501 239.14498901 C83.26011765 235.59905257 83.15972219 233.5295995 83.14990234 229.35595703 C83.14277725 228.68372101 83.13565216 228.01148499 83.12831116 227.31887817 C83.10908556 225.10681448 83.1173002 222.89571286 83.125 220.68359375 C83.11508701 219.13807793 83.10314347 217.59257391 83.08926392 216.04708862 C83.05692595 211.98255387 83.04651304 207.91828841 83.04241943 203.8536377 C83.0336605 197.35578071 82.99797699 190.85814492 82.9502449 184.36046982 C82.93772261 182.09879936 82.93841261 179.837412 82.94052124 177.57571411 C82.93393524 176.17693876 82.92692786 174.77816531 82.91943359 173.37939453 C82.91817474 172.16647736 82.91691589 170.95356018 82.9156189 169.70388794 C82.48264429 163.7389445 80.75562439 158.92057981 77.64453125 153.859375 C77.0410083 152.86703857 76.43748535 151.87470215 75.81567383 150.85229492 C75.16751709 149.80404541 74.51936035 148.7557959 73.8515625 147.67578125 C72.48365553 145.43142794 71.11648136 143.18662784 69.75 140.94140625 C69.06260742 139.81669922 68.37521484 138.69199219 67.66699219 137.53320312 C64.7236638 132.69127724 61.84775253 127.81070979 58.9765625 122.92578125 C52.92768512 112.66313067 46.80453868 102.44631027 40.6640625 92.23828125 C32.89662053 79.32331548 25.15214428 66.39555637 17.4765625 53.42578125 C10.36740399 41.41636682 10.36740399 41.41636682 3.2265625 29.42578125 C2.74848145 28.62285645 2.27040039 27.81993164 1.77783203 26.99267578 C-0.43859321 23.29503353 -2.70008012 19.64968759 -5.109375 16.07421875 C-5.53935791 15.43202393 -5.96934082 14.7898291 -6.41235352 14.12817383 C-7.55595023 12.43751189 -8.72045445 10.76104311 -9.88671875 9.0859375 C-11.3359375 6.23828125 -11.3359375 6.23828125 -11.12890625 3.421875 C-9.33248102 -1.52493143 -4.5504153 0.03642656 0 0 Z " fill="#FBFCFD" transform="translate(522.3359375,379.76171875)"/>
<path d="M0 0 C1.30319687 -0.00087616 1.30319687 -0.00087616 2.63272095 -0.00177002 C5.49538565 0.00100971 8.35700033 0.03209629 11.21948242 0.06347656 C13.20773245 0.07093935 15.19598985 0.0766321 17.18424988 0.08062744 C22.41063844 0.09588075 27.6365805 0.13516019 32.86279297 0.17944336 C38.19842489 0.22040246 43.53412914 0.23863984 48.86987305 0.25878906 C59.33429323 0.30165467 69.79826517 0.37200227 80.26245117 0.45410156 C80.26245117 6.72410156 80.26245117 12.99410156 80.26245117 19.45410156 C55.51245117 19.78410156 30.76245117 20.11410156 5.26245117 20.45410156 C4.93245117 31.34410156 4.60245117 42.23410156 4.26245117 53.45410156 C9.01522461 53.4425 13.76799805 53.43089844 18.66479492 53.41894531 C21.66805149 53.41383838 24.67130273 53.4090246 27.67456055 53.40527344 C32.44597479 53.39928566 37.21736992 53.39218711 41.98876953 53.37866211 C45.83370232 53.36783095 49.67861462 53.36182424 53.52356148 53.35922432 C54.993641 53.35737048 56.46371935 53.35375066 57.93379021 53.34837151 C59.98599585 53.34115801 62.03811584 53.34011075 64.09033203 53.34057617 C65.26059433 53.33835556 66.43085663 53.33613495 67.63658142 53.33384705 C70.26245117 53.45410156 70.26245117 53.45410156 71.26245117 54.45410156 C71.36232092 57.29745204 71.40122998 60.11107319 71.38745117 62.95410156 C71.39131836 63.75203125 71.39518555 64.54996094 71.39916992 65.37207031 C71.38905885 71.32749389 71.38905885 71.32749389 70.26245117 72.45410156 C68.20688456 72.54823844 66.14804936 72.57153154 64.09033203 72.56762695 C63.44645035 72.56777298 62.80256866 72.56791901 62.13917542 72.56806946 C60.00184815 72.56737041 57.86460704 72.55957847 55.72729492 72.55175781 C54.24898832 72.5498936 52.7706811 72.54846971 51.29237366 72.54747009 C47.39446315 72.54364515 43.49658968 72.53381508 39.59869385 72.52276611 C35.62398785 72.51255148 31.64927588 72.50797236 27.67456055 72.50292969 C19.87050717 72.49219278 12.06648435 72.47511665 4.26245117 72.45410156 C4.26467178 73.04070053 4.2668924 73.6272995 4.2691803 74.23167419 C4.29123327 80.3143554 4.30635782 86.39702533 4.31738281 92.47973633 C4.32242442 94.75252748 4.32925755 97.02531536 4.33789062 99.2980957 C4.34996378 102.55713708 4.35568104 105.81613573 4.36010742 109.07519531 C4.36526871 110.09810165 4.37042999 111.121008 4.37574768 112.1749115 C4.37586098 113.58626122 4.37586098 113.58626122 4.37597656 115.02612305 C4.37819717 115.85885239 4.38041779 116.69158173 4.38270569 117.54954529 C4.26245117 119.45410156 4.26245117 119.45410156 3.26245117 120.45410156 C1.85896382 120.55270287 0.4506464 120.58489093 -0.95629883 120.58691406 C-2.23053711 120.58884766 -2.23053711 120.58884766 -3.53051758 120.59082031 C-4.42383789 120.58695313 -5.3171582 120.58308594 -6.23754883 120.57910156 C-7.13086914 120.58296875 -8.02418945 120.58683594 -8.94458008 120.59082031 C-9.79407227 120.58953125 -10.64356445 120.58824219 -11.51879883 120.58691406 C-12.30319336 120.58578613 -13.08758789 120.5846582 -13.89575195 120.58349609 C-15.73754883 120.45410156 -15.73754883 120.45410156 -16.73754883 119.45410156 C-16.83950776 118.05104173 -16.87272765 116.64291001 -16.87799072 115.23616028 C-16.88370087 114.32631378 -16.88941101 113.41646729 -16.89529419 112.47904968 C-16.89641205 111.47284073 -16.89752991 110.46663177 -16.89868164 109.42993164 C-16.90364655 108.37628418 -16.90861145 107.32263672 -16.91372681 106.23706055 C-16.92839544 102.73257811 -16.9351592 99.22814098 -16.94067383 95.72363281 C-16.94642262 93.29562884 -16.95218038 90.8676249 -16.95794678 88.43962097 C-16.96847097 83.33922106 -16.97430395 78.23883698 -16.9777832 73.13842773 C-16.98326254 66.60238817 -17.00727282 60.0665575 -17.03575516 53.53058338 C-17.0543815 48.51113781 -17.0595872 43.49174246 -17.06111908 38.47226524 C-17.06414752 36.06292266 -17.07218244 33.65358099 -17.08530426 31.24427223 C-17.10235979 27.87110176 -17.10048511 24.49844025 -17.09399414 21.12524414 C-17.10320892 20.12915634 -17.11242371 19.13306854 -17.12191772 18.10679626 C-17.081746 11.44213986 -16.22682155 7.18192685 -11.59614563 2.10748291 C-7.64768798 -0.17626212 -4.48442112 -0.07920389 0 0 Z " fill="#061630" transform="translate(686.737548828125,764.5458984375)"/>
<path d="M0 0 C6.71820958 3.723071 9.26762942 8.27398026 12.5625 15.0625 C13.06571777 16.0618457 13.56893555 17.06119141 14.08740234 18.09082031 C15.74192213 21.38568841 17.37101689 24.69244166 19 28 C20.47787212 30.96275229 21.95896504 33.92386323 23.44172668 36.88417053 C24.8846893 39.76623036 26.32305665 42.65036267 27.75219727 45.53930664 C30.99069525 52.07109379 34.32376369 58.54120603 37.734375 64.984375 C42.85495035 74.66573815 47.82038274 84.42131999 52.7265625 94.21289062 C54.15322549 97.05625388 55.58836941 99.89524637 57.0234375 102.734375 C57.93541605 104.55182239 58.84689446 106.36952085 59.7578125 108.1875 C60.39978073 109.45291626 60.39978073 109.45291626 61.05471802 110.74389648 C61.44287689 111.52321533 61.83103577 112.30253418 62.23095703 113.10546875 C62.74530807 114.12870239 62.74530807 114.12870239 63.27005005 115.17260742 C64 117 64 117 64 120 C60.60533263 120.23315639 57.21272038 120.37464625 53.8125 120.5 C52.85279297 120.56703125 51.89308594 120.6340625 50.90429688 120.703125 C44.04417468 120.89302458 44.04417468 120.89302458 41.45678711 118.68017578 C40.05509436 116.52836626 39.04239393 114.34858088 38 112 C36.86584124 109.76692712 35.72888349 107.53527465 34.58984375 105.3046875 C33.36323991 102.83260038 32.15007261 100.35399461 30.9375 97.875 C29.72224499 95.39083352 28.50144481 92.90950481 27.27734375 90.4296875 C26.74359131 89.33897949 26.20983887 88.24827148 25.65991211 87.12451172 C23.96107524 83.92673053 22.01683201 81.0044507 20 78 C19.18192923 76.45184355 18.39956347 74.88410691 17.66015625 73.296875 C17.24306396 72.41080566 16.82597168 71.52473633 16.39624023 70.61181641 C15.95610596 69.66741699 15.51597168 68.72301758 15.0625 67.75 C10.76865656 58.66701223 6.40095455 49.6255614 1.9375 40.625 C1.37748291 39.48385742 0.81746582 38.34271484 0.24047852 37.16699219 C-0.28360596 36.11415039 -0.80769043 35.06130859 -1.34765625 33.9765625 C-2.04387085 32.57011475 -2.04387085 32.57011475 -2.75415039 31.13525391 C-3.81928958 28.86236935 -3.81928958 28.86236935 -6 28 C-6.25201172 28.66628418 -6.50402344 29.33256836 -6.76367188 30.01904297 C-8.27441723 33.66165766 -10.01478068 37.17233934 -11.78125 40.6953125 C-12.33582886 41.80644913 -12.33582886 41.80644913 -12.90161133 42.94003296 C-14.09873895 45.33619824 -15.29914838 47.73069911 -16.5 50.125 C-16.90839111 50.940896 -17.31678223 51.75679199 -17.73754883 52.59741211 C-22.61113384 62.33211772 -27.52057317 72.04154315 -32.64550781 81.64697266 C-35.61214322 87.21685004 -38.44436074 92.8474851 -41.25 98.5 C-50.86804232 117.86804232 -50.86804232 117.86804232 -53 120 C-54.56172745 120.08685603 -56.12729344 120.10702219 -57.69140625 120.09765625 C-58.63564453 120.09443359 -59.57988281 120.09121094 -60.55273438 120.08789062 C-61.54595703 120.07951172 -62.53917969 120.07113281 -63.5625 120.0625 C-64.55958984 120.05798828 -65.55667969 120.05347656 -66.58398438 120.04882812 C-69.05604849 120.03700007 -71.52799518 120.02051849 -74 120 C-73.37509352 115.3230981 -71.42999429 111.45896067 -69.31640625 107.3046875 C-68.76031677 106.19477448 -68.76031677 106.19477448 -68.19299316 105.06243896 C-66.9888659 102.66353383 -65.77592904 100.26921163 -64.5625 97.875 C-63.72484526 96.21159382 -62.88752548 94.54801892 -62.05053711 92.88427734 C-57.78108697 84.41294006 -53.4623494 75.97251345 -48.9831543 67.60986328 C-43.4185231 57.14174519 -38.21784357 46.48106151 -32.94946289 35.86181641 C-29.24813133 28.41062727 -25.52157814 20.97320486 -21.65625 13.60546875 C-21.34327972 12.99938782 -21.03030945 12.39330688 -20.70785522 11.76885986 C-16.24931726 3.36488925 -10.08690707 -2.86023911 0 0 Z " fill="#061632" transform="translate(534,765)"/>
<path d="M0 0 C7.9184184 3.9592092 11.76009538 10.92896267 15.46875 18.58203125 C15.87154175 19.39564621 16.2743335 20.20926117 16.68933105 21.04753113 C17.96723873 23.63214924 19.23408629 26.22198944 20.5 28.8125 C21.76796071 31.39123505 23.03826197 33.96878987 24.31066895 36.54533386 C25.09845923 38.14223614 25.88341871 39.74053951 26.66491699 41.3405304 C28.95832496 46.00919481 31.39022705 50.57105735 33.95959473 55.09405518 C35.17977872 57.3293412 36.0774236 59.62820984 37 62 C38.31247787 64.53413696 39.64707384 67.05016255 41 69.5625 C45.92124613 78.81926636 50.67065806 88.16187141 55.38037109 97.52755737 C56.21022559 99.17605486 57.04225883 100.82345736 57.87646484 102.46975708 C59.06165691 104.81021123 60.23886753 107.15451345 61.4140625 109.5 C61.95711533 110.56763832 61.95711533 110.56763832 62.51113892 111.65684509 C65 116.65704341 65 116.65704341 65 120 C61.60533263 120.23315639 58.21272038 120.37464625 54.8125 120.5 C53.85279297 120.56703125 52.89308594 120.6340625 51.90429688 120.703125 C45.0810415 120.89200404 45.0810415 120.89200404 42.49633789 118.75927734 C41.07083789 116.58848648 40.0602486 114.37346151 39 112 C38.39345543 110.78823459 37.7801752 109.57982794 37.16186523 108.37402344 C35.00176131 104.14552647 32.90425128 99.88763209 30.8125 95.625 C29.38611265 92.71905621 27.95444269 89.81580485 26.51953125 86.9140625 C26.19555862 86.24952057 25.871586 85.58497864 25.53779602 84.90029907 C24.2214754 82.23905592 23.11492489 80.11492489 21 78 C20.30243361 76.40372845 19.61057154 74.80474289 18.94628906 73.19433594 C16.95570386 68.57839688 14.63003727 64.1158918 12.375 59.625 C11.58464355 58.04501221 11.58464355 58.04501221 10.77832031 56.43310547 C7.16043785 49.22907636 3.45404377 42.0784253 -0.40869141 35.00244141 C-3 30.20870223 -3 30.20870223 -3 28 C-3.66 28 -4.32 28 -5 28 C-5.2371875 28.63679687 -5.474375 29.27359375 -5.71875 29.9296875 C-7.45619276 34.09319363 -9.47417345 38.09541303 -11.5 42.125 C-11.94287354 43.00808838 -12.38574707 43.89117676 -12.84204102 44.80102539 C-17.02119698 53.10095478 -21.34229994 61.32273574 -25.69384766 69.53320312 C-31.67090312 80.8214589 -37.60885481 92.12354136 -43.27587891 103.57104492 C-46.03848777 109.131755 -48.98485963 114.57274733 -52 120 C-58.93 120 -65.86 120 -73 120 C-72.21730856 115.30385135 -71.83725653 113.18401965 -69.734375 109.296875 C-69.26306152 108.41225586 -68.79174805 107.52763672 -68.30615234 106.61621094 C-67.79262207 105.67036133 -67.2790918 104.72451172 -66.75 103.75 C-65.65154774 101.68861665 -64.55527473 99.62607087 -63.4609375 97.5625 C-62.60580566 95.95181641 -62.60580566 95.95181641 -61.73339844 94.30859375 C-58.86352805 88.83077918 -56.12152176 83.29040439 -53.375 77.75 C-49.36250268 69.67554831 -45.27343445 61.65641698 -41.02783203 53.70239258 C-38.28514254 48.52840825 -35.64203263 43.30970147 -33.03515625 38.06640625 C-32.68361984 37.35979858 -32.33208344 36.65319092 -31.96989441 35.9251709 C-30.20944474 32.38341475 -28.45491186 28.83886303 -26.70776367 25.29052734 C-13.06793822 -2.30334163 -13.06793822 -2.30334163 0 0 Z " fill="#051530" transform="translate(894,765)"/>
<path d="M0 0 C4.02007528 -0.20448678 8.03880464 -0.32802689 12.0625 -0.4375 C13.19623047 -0.49615234 14.32996094 -0.55480469 15.49804688 -0.61523438 C23.7375013 -0.78338651 23.7375013 -0.78338651 27.18603516 1.35644531 C29.00181059 3.13417593 30.50052578 4.95060763 32 7 C32.68364624 7.83108276 32.68364624 7.83108276 33.38110352 8.67895508 C34.71171894 10.29952917 35.98363894 11.95387591 37.25 13.625 C40.95603033 18.43038055 44.74411622 23.13723164 48.6875 27.75 C54.32193982 34.34644166 59.82167228 41.03767522 65 48 C68.93154331 46.68948556 70.41565991 44.19434204 72.8125 41 C73.79890543 39.71470405 74.78727718 38.43091539 75.77734375 37.1484375 C76.30054199 36.47006836 76.82374023 35.79169922 77.36279297 35.09277344 C80.70803863 30.81668549 84.1657728 26.62837435 87.68945312 22.49829102 C90.72258487 18.91624079 93.45883588 15.37562745 95.90234375 11.36328125 C102.68527925 0.75280752 102.68527925 0.75280752 109.0078125 -0.68310547 C116.37850379 -1.36822918 123.66583849 -0.89158714 131 0 C129.3724696 4.38727591 127.14436695 7.46726553 124.0625 10.9375 C120.09402513 15.50874801 116.26470246 20.14811616 112.5625 24.9375 C108.36381821 30.34975177 103.9828848 35.56567504 99.49169922 40.73657227 C95.47660756 45.38346383 91.65543073 50.16024538 87.91601562 55.03125 C87.50416016 55.56492187 87.09230469 56.09859375 86.66796875 56.6484375 C86.27652176 57.1633223 85.88507477 57.67820709 85.48176575 58.20869446 C84 60 84 60 82.23869324 61.65885925 C77.37649709 66.40411229 76.18783934 69.91864056 76.08010864 76.65647888 C76.09750092 77.72761429 76.11489319 78.79874969 76.1328125 79.90234375 C76.12289276 81.02065079 76.11297302 82.13895782 76.10275269 83.29115295 C76.07771958 86.84068853 76.09996112 90.38799782 76.125 93.9375 C76.11828269 97.51134635 76.10203606 101.08502892 76.08297729 104.65882874 C76.07463406 106.87791935 76.07548405 109.09706648 76.08621216 111.31614685 C76.08886078 112.31130814 76.0915094 113.30646942 76.09423828 114.33178711 C76.09980743 115.21144638 76.10537659 116.09110565 76.1111145 116.99742126 C76 119 76 119 75 120 C73.59651265 120.09860131 72.18819523 120.13078937 70.78125 120.1328125 C69.50701172 120.13474609 69.50701172 120.13474609 68.20703125 120.13671875 C67.31371094 120.13285156 66.42039062 120.12898437 65.5 120.125 C64.60667969 120.12886719 63.71335937 120.13273438 62.79296875 120.13671875 C61.94347656 120.13542969 61.09398437 120.13414062 60.21875 120.1328125 C59.43435547 120.13168457 58.64996094 120.13055664 57.84179688 120.12939453 C56 120 56 120 55 119 C54.94508671 117.48724306 54.95911786 115.97191467 55.00097656 114.45874023 C55.12548312 108.97655011 55.18050727 103.49742703 55.21142578 98.01391602 C55.23685589 95.6561588 55.28356722 93.29852143 55.35302734 90.94165039 C55.73002494 77.3993993 55.6953162 67.198416 46.04974365 56.96910095 C44.92783048 55.84980569 43.79384206 54.74246157 42.64715576 53.64855957 C39.95219879 50.95130579 37.72039704 47.92018252 35.4375 44.875 C31.20686427 39.43344445 26.7847907 34.18301227 22.27368164 28.97265625 C18.75297466 24.9010669 15.35373368 20.75305417 12.0234375 16.5234375 C10.4699314 14.58605345 8.89557697 12.68177579 7.2890625 10.7890625 C6.8264502 10.24266113 6.36383789 9.69625977 5.88720703 9.13330078 C4.5639407 7.57528392 3.23523034 6.0218957 1.90625 4.46875 C0 2 0 2 0 0 Z " fill="#051530" transform="translate(278,765)"/>
<path d="M0 0 C5.80114708 4.50059494 10.88314028 9.53025006 12 17 C12.88082075 28.61662143 12.3418183 36.23661606 4.9375 45.25 C0.49764951 49.97278214 -3.79824909 52.29692851 -10 54 C-10.67417969 54.18691406 -11.34835937 54.37382812 -12.04296875 54.56640625 C-20.46092412 56.43146223 -27.59383161 54.16156129 -35 50 C-41.57120145 44.98879109 -45.98194324 39.12355364 -47.59765625 30.9921875 C-48.66668472 22.21162355 -47.5023933 15.05901254 -42.41796875 7.71484375 C-31.12707121 -5.92089031 -15.61856657 -9.25066615 0 0 Z " fill="#F9FBFD" transform="translate(714,385)"/>
<path d="M0 0 C0.99 0.33 1.98 0.66 3 1 C1.52484445 1.63440928 0.04456668 2.25690827 -1.4375 2.875 C-2.26121094 3.22304688 -3.08492187 3.57109375 -3.93359375 3.9296875 C-11.14369706 6.44633502 -17.97871076 7.29293518 -25.5861969 7.24050903 C-26.96980523 7.24307231 -26.96980523 7.24307231 -28.38136524 7.24568737 C-31.44906726 7.24896197 -34.5165469 7.23801216 -37.58422852 7.22705078 C-39.79242447 7.22648623 -42.00062079 7.22680409 -44.20881653 7.22793579 C-50.18746482 7.22850858 -56.16603254 7.2167661 -62.14466214 7.20278788 C-68.39867826 7.19026831 -74.65269631 7.18910905 -80.90672302 7.18673706 C-91.3985219 7.18123118 -101.89029592 7.16874669 -112.38208008 7.15087891 C-123.18513848 7.13250023 -133.98818887 7.11835347 -144.79125977 7.10986328 C-145.45798226 7.10933783 -146.12470476 7.10881239 -146.81163097 7.10827102 C-150.15662717 7.1056608 -153.50162343 7.10313794 -156.84661973 7.10064721 C-184.56443367 7.07975347 -212.28221476 7.04458454 -240 7 C-240 6.34 -240 5.68 -240 5 C-235.71646868 3.79657535 -231.54928604 3.87092223 -227.13137817 3.89320374 C-226.22564525 3.89376044 -225.31991232 3.89431715 -224.38673294 3.89489073 C-221.34519729 3.89793198 -218.30372684 3.90811877 -215.26220703 3.91821289 C-213.08418852 3.92176834 -210.90616921 3.92485451 -208.72814941 3.92750549 C-204.03441537 3.93406142 -199.34070028 3.94362413 -194.64697647 3.95540047 C-187.22672183 3.97367042 -179.80647182 3.98328622 -172.38619995 3.99131775 C-151.28462604 4.01548673 -130.18308224 4.0513574 -109.08154297 4.09594727 C-97.43008754 4.12049148 -85.77864317 4.13785594 -74.12716568 4.14750665 C-66.74937752 4.15405365 -59.37168024 4.16962142 -51.99392343 4.19182408 C-47.40481047 4.20354832 -42.81571967 4.20692115 -38.22659302 4.20792198 C-36.09730263 4.21007082 -33.96801253 4.21566714 -31.8387413 4.2249527 C-28.93327954 4.23713334 -26.02806871 4.23698727 -23.12258911 4.23377991 C-22.27900412 4.24028771 -21.43541912 4.24679551 -20.56627095 4.25350052 C-15.95579694 4.23367909 -12.35514601 3.68806862 -8 2 C-6.00211562 1.65421232 -4.00240549 1.31856451 -2 1 C-1.34 0.67 -0.68 0.34 0 0 Z " fill="#1252DB" transform="translate(753,661)"/>
<path d="M0 0 C6.17188575 4.90945458 6.17188575 4.90945458 6.75 9.1875 C7.12476782 13.83462092 7.21401536 16.22234806 5.1875 20.4375 C1.33692676 24.78173647 -2.0369788 26.87690053 -7.8125 27.6875 C-12.98588032 26.93500832 -15.76773671 24.47472865 -19.625 21.125 C-22.16457946 16.53422175 -22.32557133 12.29468307 -21.25 7.1875 C-19.05481991 3.42518862 -16.4585607 -0.05783737 -12.2265625 -1.50390625 C-7.4616379 -2.24783717 -4.28945827 -2.39219788 0 0 Z " fill="#075CF4" transform="translate(897.25,857.8125)"/>
<path d="M0 0 C4.32625381 2.20394062 7.64014223 4.73410327 10 9 C10.83829075 13.66118562 11.11146724 18.00702427 8.75390625 22.234375 C5.6077342 26.03174975 3.33942947 27.6682388 -1.671875 28.37890625 C-9.60678774 28.8521815 -9.60678774 28.8521815 -13.34375 26.56640625 C-16.88601025 22.95881743 -18.42724688 19.88562807 -18.625 14.8125 C-18.16856876 9.07199941 -16.26927121 6.35993344 -12.375 2.1875 C-8.54263873 -0.82500289 -4.67562262 -0.90658392 0 0 Z " fill="#085AF2" transform="translate(533,856)"/>
<path d="M0 0 C0.66 0.66 1.32 1.32 2 2 C1.76760256 3.84439844 1.76760256 3.84439844 1.14240456 6.05670834 C-0.03921768 10.81473966 -0.29036579 15.20715673 -0.2784729 20.09266663 C-0.2842653 20.961986 -0.2900577 21.83130537 -0.29602563 22.72696775 C-0.31291484 25.61497342 -0.31589253 28.50281823 -0.31884766 31.39086914 C-0.32815348 33.47099189 -0.33832313 35.55111093 -0.34928894 37.63122559 C-0.37652911 43.26067052 -0.39172063 48.89009052 -0.40471697 54.51958394 C-0.42037369 60.40927943 -0.44715581 66.29892419 -0.4727478 72.18858337 C-0.51949059 83.33366943 -0.5562565 94.47876509 -0.58942068 105.62389892 C-0.62767385 118.31555418 -0.67707566 131.00715842 -0.72740483 143.69877064 C-0.83065777 169.79914259 -0.91993976 195.89954733 -1 222 C-1.33 222 -1.66 222 -2 222 C-2.04674365 194.53134825 -2.08200046 167.06270247 -2.10362434 139.59401894 C-2.11393204 126.83952123 -2.12798275 114.08504824 -2.15087891 101.33056641 C-2.17082823 90.21233458 -2.18372012 79.09412067 -2.18817699 67.97587144 C-2.19078174 62.09017047 -2.19689361 56.20452074 -2.21146011 50.31883621 C-2.22506833 44.77526606 -2.22921607 39.2317681 -2.22621536 33.68818283 C-2.22676407 31.65733192 -2.23072214 29.62647852 -2.23841095 27.59564209 C-2.24842292 24.81396887 -2.24594619 22.03256502 -2.24050903 19.25088501 C-2.24633472 18.45513239 -2.2521604 17.65937976 -2.25816262 16.83951342 C-2.22772682 11.04301642 -1.29993178 5.64237046 0 0 Z " fill="#2379F7" transform="translate(447,375)"/>
<path d="M0 0 C0.33 0 0.66 0 1 0 C1.02526787 7.10244999 1.04283201 14.20488848 1.05493164 21.30737305 C1.05997349 23.72567172 1.06680678 26.14396733 1.07543945 28.56225586 C1.08751157 32.02979283 1.09322963 35.49728966 1.09765625 38.96484375 C1.10281754 40.05337143 1.10797882 41.14189911 1.11329651 42.26341248 C1.11340981 43.76485558 1.11340981 43.76485558 1.11352539 45.29663086 C1.115746 46.18265488 1.11796661 47.06867889 1.12025452 47.98155212 C1 50 1 50 0 51 C-1.41570123 51.08651611 -2.835595 51.10704904 -4.25390625 51.09765625 C-5.10791016 51.09443359 -5.96191406 51.09121094 -6.84179688 51.08789062 C-7.73962891 51.07951172 -8.63746094 51.07113281 -9.5625 51.0625 C-10.46419922 51.05798828 -11.36589844 51.05347656 -12.29492188 51.04882812 C-14.53001314 51.03700225 -16.76497437 51.0205222 -19 51 C-19 50.67 -19 50.34 -19 50 C-12.93303301 49.22959149 -7.11485027 48.90293888 -1 49 C-1.00580078 48.12529053 -1.01160156 47.25058105 -1.01757812 46.34936523 C-1.05463411 36.24433178 -0.82232905 26.16178307 -0.5 16.0625 C-0.45161299 14.492845 -0.4034349 12.92318354 -0.35546875 11.35351562 C-0.23937551 7.56893204 -0.12049722 3.78444582 0 0 Z " fill="#272C44" transform="translate(353,834)"/>
<path d="M0 0 C0.33 0 0.66 0 1 0 C1.02527002 6.53278786 1.04283292 13.06556321 1.05493164 19.59838867 C1.05997317 21.82267732 1.06680623 24.04696263 1.07543945 26.27124023 C1.08751298 29.46078309 1.09322996 32.65028229 1.09765625 35.83984375 C1.10281754 36.84087631 1.10797882 37.84190887 1.11329651 38.87327576 C1.11340981 40.25459435 1.11340981 40.25459435 1.11352539 41.66381836 C1.115746 42.47878281 1.11796661 43.29374725 1.12025452 44.13340759 C1 46 1 46 0 47 C-1.41570123 47.08651611 -2.835595 47.10704904 -4.25390625 47.09765625 C-5.10791016 47.09443359 -5.96191406 47.09121094 -6.84179688 47.08789062 C-7.73962891 47.07951172 -8.63746094 47.07113281 -9.5625 47.0625 C-10.46419922 47.05798828 -11.36589844 47.05347656 -12.29492188 47.04882812 C-14.53001314 47.03700225 -16.76497437 47.0205222 -19 47 C-19 46.34 -19 45.68 -19 45 C-13.06 45 -7.12 45 -1 45 C-0.67 30.15 -0.34 15.3 0 0 Z " fill="#2B314A" transform="translate(690,838)"/>
<path d="M0 0 C0 5.61 0 11.22 0 17 C-0.33 17 -0.66 17 -1 17 C-1.495 9.575 -1.495 9.575 -2 2 C-3.32 2 -4.64 2 -6 2 C-7.98735209 1.97265253 -9.97465447 1.94160245 -11.96191406 1.90820312 C-13.16285706 1.88818237 -14.36380005 1.86816162 -15.60113525 1.84753418 C-16.89291687 1.8256604 -18.18469849 1.80378662 -19.515625 1.78125 C-20.8551224 1.75880064 -22.19462029 1.73638081 -23.53411865 1.71398926 C-27.0522104 1.65510038 -30.5702953 1.59581114 -34.08837891 1.53643799 C-37.68131104 1.47587269 -41.27424953 1.41568677 -44.8671875 1.35546875 C-51.91146459 1.23735007 -58.95573451 1.11880835 -66 1 C-66 0.67 -66 0.34 -66 0 C-57.69007608 -0.15370867 -49.38008005 -0.3018902 -41.06993294 -0.4429636 C-37.21144327 -0.50864033 -33.35300704 -0.57623988 -29.49462891 -0.64819336 C-25.77295488 -0.71752741 -22.0512253 -0.78186342 -18.32940292 -0.84269524 C-16.90756961 -0.86682075 -15.48576599 -0.8927648 -14.06399918 -0.92053413 C-12.07676984 -0.95904093 -10.08940869 -0.99055522 -8.10205078 -1.02172852 C-6.96953888 -1.04171402 -5.83702698 -1.06169952 -4.67019653 -1.08229065 C-2 -1 -2 -1 0 0 Z " fill="#0C1D34" transform="translate(758,819)"/>
<path d="M0 0 C0.66 0.99 1.32 1.98 2 3 C4.02887311 3.41480107 4.02887311 3.41480107 6.3515625 3.29296875 C7.62773437 3.2784668 7.62773437 3.2784668 8.9296875 3.26367188 C10.26386719 3.2259668 10.26386719 3.2259668 11.625 3.1875 C12.5221875 3.17396484 13.419375 3.16042969 14.34375 3.14648438 C16.56309789 3.11106925 18.78125188 3.06168461 21 3 C20.34 4.32 19.68 5.64 19 7 C12.07 7 5.14 7 -2 7 C-1 2 -1 2 0 0 Z " fill="#212D47" transform="translate(462,878)"/>
<path d="M0 0 C0.66 0.66 1.32 1.32 2 2 C4.84997222 2.17245986 7.59062321 2.23216611 10.4375 2.1875 C11.60249023 2.1865332 11.60249023 2.1865332 12.79101562 2.18554688 C16.10260575 2.15987563 18.83942745 2.05352418 22 1 C21.34 2.65 20.68 4.3 20 6 C13.07 6 6.14 6 -1 6 C-0.67 4.02 -0.34 2.04 0 0 Z " fill="#222D46" transform="translate(822,879)"/>
<path d="M0 0 C1.16982422 0.02707031 2.33964844 0.05414062 3.54492188 0.08203125 C6.42766135 0.15262895 9.30663571 0.25119426 12.1875 0.375 C12.1875 0.705 12.1875 1.035 12.1875 1.375 C5.7525 1.87 5.7525 1.87 -0.8125 2.375 C-0.8125 2.705 -0.8125 3.035 -0.8125 3.375 C-1.46476562 3.37757813 -2.11703125 3.38015625 -2.7890625 3.3828125 C-7.64035075 3.59747127 -10.83736269 3.76567505 -14.25 7.4375 C-15.5184375 8.8915625 -15.5184375 8.8915625 -16.8125 10.375 C-17.8025 10.375 -18.7925 10.375 -19.8125 10.375 C-15.40241401 -0.04883961 -10.69594462 -0.46738582 0 0 Z " fill="#1D2945" transform="translate(396.8125,764.625)"/>
<path d="M0 0 C0.66 0 1.32 0 2 0 C3.4606285 2.64738916 4 3.89448334 4 7 C-2.93 7 -9.86 7 -17 7 C-17 6.01 -17 5.02 -17 4 C-16.02417969 3.93941406 -15.04835938 3.87882813 -14.04296875 3.81640625 C-12.77066406 3.73261719 -11.49835937 3.64882813 -10.1875 3.5625 C-8.92292969 3.48128906 -7.65835938 3.40007813 -6.35546875 3.31640625 C-3.00818107 3.12815453 -3.00818107 3.12815453 0 2 C0 1.34 0 0.68 0 0 Z " fill="#2B374E" transform="translate(955,878)"/>
<path d="M0 0 C-1.26050352 3.78151055 -3.03232971 5.36956497 -6 8 C-7.64363134 8.72159424 -9.31050386 9.39351421 -11 10 C-12.36365283 10.95824253 -13.70794169 11.94721175 -15 13 C-15.66 12.34 -16.32 11.68 -17 11 C-14.87657342 9.35210134 -12.7513551 7.70661212 -10.625 6.0625 C-10.02171875 5.59392578 -9.4184375 5.12535156 -8.796875 4.64257812 C-2.78490333 0 -2.78490333 0 0 0 Z " fill="#186FFB" transform="translate(487,325)"/>
<path d="M0 0 C-0.66 0 -1.32 0 -2 0 C-2.33 0.99 -2.66 1.98 -3 3 C-5.94389782 4.17755913 -6.89953913 4.03348696 -10 3 C-10.33 3.99 -10.66 4.98 -11 6 C-12.98 6 -14.96 6 -17 6 C-14.64350301 3.31127557 -12.36421235 2.0806149 -9.0625 0.75 C-8.20785156 0.39421875 -7.35320312 0.0384375 -6.47265625 -0.328125 C-3.82854634 -1.04658772 -2.54131429 -0.91982605 0 0 Z " fill="#3D88FA" transform="translate(504,319)"/>
<path d="M0 0 C0 5.61 0 11.22 0 17 C-0.33 17 -0.66 17 -1 17 C-1.33 12.05 -1.66 7.1 -2 2 C-3.32 2 -4.64 2 -6 2 C-8.00401011 1.69169075 -10.00511766 1.36270588 -12 1 C-12 0.67 -12 0.34 -12 0 C-10.37585622 -0.19477739 -8.75063577 -0.38059458 -7.125 -0.5625 C-6.22007812 -0.66691406 -5.31515625 -0.77132812 -4.3828125 -0.87890625 C-2 -1 -2 -1 0 0 Z " fill="#3F4C5F" transform="translate(758,819)"/>
<path d="M0 0 C2.74792483 3.40219265 6 7.48464588 6 12 C2.51752126 10.83917375 2.11180756 10.09067524 0.25 7.0625 C-0.19859375 6.35222656 -0.6471875 5.64195312 -1.109375 4.91015625 C-1.40328125 4.27980469 -1.6971875 3.64945313 -2 3 C-1 1 -1 1 0 0 Z " fill="#2A334C" transform="translate(936,838)"/>
<path d="M0 0 C0.99 0.33 1.98 0.66 3 1 C3.6875 3.0625 3.6875 3.0625 4 5 C-0.75 7 -0.75 7 -3 7 C-1.125 2.25 -1.125 2.25 0 0 Z " fill="#D9DBE0" transform="translate(528,793)"/>
<path d="M0 0 C0.66 0.33 1.32 0.66 2 1 C0.57363718 2.84201153 -0.86644632 4.67340587 -2.3125 6.5 C-3.11300781 7.5209375 -3.91351563 8.541875 -4.73828125 9.59375 C-5.48464844 10.3878125 -6.23101562 11.181875 -7 12 C-7.99 12 -8.98 12 -10 12 C-6.7 8.04 -3.4 4.08 0 0 Z " fill="#DEE1E7" transform="translate(402,775)"/>
<path d="M0 0 C0.33 0 0.66 0 1 0 C1 2.31 1 4.62 1 7 C0.34 7 -0.32 7 -1 7 C-1.103125 7.598125 -1.20625 8.19625 -1.3125 8.8125 C-2.08876455 11.28243264 -3.07088921 12.32251235 -5 14 C-5.99 13.67 -6.98 13.34 -8 13 C-7.236875 12.34 -6.47375 11.68 -5.6875 11 C-2.43223306 7.79097265 -1.38543586 4.30214295 0 0 Z " fill="#2263EB" transform="translate(656,578)"/>
<path d="M0 0 C0 3.66184524 -0.919642 5.02806 -3 8 C-5.1875 9.8125 -5.1875 9.8125 -7 11 C-7.66 10.67 -8.32 10.34 -9 10 C-6.03 6.7 -3.06 3.4 0 0 Z " fill="#1A64F6" transform="translate(708,483)"/>
<path d="M0 0 C0.66 0.33 1.32 0.66 2 1 C1.52949219 1.45890625 1.05898438 1.9178125 0.57421875 2.390625 C-4.03368398 6.91549295 -4.03368398 6.91549295 -8 12 C-8.66 11.67 -9.32 11.34 -10 11 C-9.09066991 9.72390677 -8.17217147 8.45434447 -7.25 7.1875 C-6.73953125 6.47980469 -6.2290625 5.77210938 -5.703125 5.04296875 C-3.97517642 2.97022309 -2.21473524 1.52624146 0 0 Z " fill="#D4E9FD" transform="translate(663,463)"/>
<path d="M0 0 C2.64 0 5.28 0 8 0 C8.33 0.66 8.66 1.32 9 2 C6.04335481 3.4783226 3.25770263 3.06032783 0 3 C0 2.01 0 1.02 0 0 Z " fill="#2A6DED" transform="translate(886,882)"/>
<path d="M0 0 C2.26986168 2.26986168 2.88775876 4.01085168 4 7 C4.5878125 8.299375 4.5878125 8.299375 5.1875 9.625 C6 12 6 12 5 15 C3.96709159 13.06891037 2.94901328 11.129882 1.9375 9.1875 C1.08478516 7.56908203 1.08478516 7.56908203 0.21484375 5.91796875 C-1 3 -1 3 0 0 Z " fill="#161E39" transform="translate(546,821)"/>
<path d="M0 0 C0.66 0.99 1.32 1.98 2 3 C0.625 6.6875 0.625 6.6875 -1 10 C-1.99 10 -2.98 10 -4 10 C-2.8905928 6.51329166 -1.73662334 3.22515763 0 0 Z " fill="#2D3953" transform="translate(503,797)"/>
<path d="M0 0 C1.28222189 3.03070628 0.98589446 4.03596914 -0.25 7.1875 C-2 10 -2 10 -5 11 C-3.77472971 6.94718288 -2.30119506 3.55639236 0 0 Z " fill="#343D57" transform="translate(509,786)"/>
<path d="M0 0 C2.45898655 -0.08076963 4.91533742 -0.14037143 7.375 -0.1875 C8.07367188 -0.21263672 8.77234375 -0.23777344 9.4921875 -0.26367188 C11.5234375 -0.29296875 11.5234375 -0.29296875 15 0 C15.66 0.99 16.32 1.98 17 3 C14 3 14 3 12 2 C9.9625237 1.77141886 7.91959697 1.58975722 5.875 1.4375 C4.23144531 1.31181641 4.23144531 1.31181641 2.5546875 1.18359375 C1.71164062 1.12300781 0.86859375 1.06242188 0 1 C0 0.67 0 0.34 0 0 Z " fill="#0C1C38" transform="translate(290,767)"/>
<path d="M0 0 C2.15377564 2.62198774 3.40072174 4.64404172 4 8 C2.68 8 1.36 8 0 8 C0 6.68 0 5.36 0 4 C-1.4166747 2.2488427 -1.4166747 2.2488427 -3 1 C-2.01 0.67 -1.02 0.34 0 0 Z " fill="#252D42" transform="translate(947,860)"/>
<path d="M0 0 C0.75 1.5625 0.75 1.5625 1 4 C-0.13084437 6.50286409 -1.52139516 8.67007722 -3 11 C-3.66 11 -4.32 11 -5 11 C-3.55049545 7.2089881 -1.84827434 3.6125362 0 0 Z " fill="#CCD0D9" transform="translate(510,828)"/>
<path d="M0 0 C3.0916909 2.52956528 3.90931332 5.22454612 5 9 C3.0625 8.4375 3.0625 8.4375 1 7 C0.25 3.375 0.25 3.375 0 0 Z " fill="#39435C" transform="translate(930,827)"/>
<path d="M0 0 C0.33 0.99 0.66 1.98 1 3 C0.00390625 4.82421875 0.00390625 4.82421875 -1.4375 6.6875 C-1.91058594 7.31011719 -2.38367188 7.93273437 -2.87109375 8.57421875 C-3.24363281 9.04472656 -3.61617187 9.51523437 -4 10 C-4.99 9.67 -5.98 9.34 -7 9 C-6.57847656 8.51789063 -6.15695312 8.03578125 -5.72265625 7.5390625 C-5.17480469 6.90742188 -4.62695312 6.27578125 -4.0625 5.625 C-3.51722656 4.99851562 -2.97195313 4.37203125 -2.41015625 3.7265625 C-0.93041376 2.04367666 -0.93041376 2.04367666 0 0 Z " fill="#1764F0" transform="translate(725,462)"/>
<path d="M0 0 C0.6875 1.6875 0.6875 1.6875 1 4 C-0.3125 6.75 -0.3125 6.75 -2 9 C-2.66 9 -3.32 9 -4 9 C-2.94124926 5.59687262 -1.99097846 2.98646769 0 0 Z " fill="#CBCFD7" transform="translate(487,873)"/>
<path d="M0 0 C0.98726527 2.66561622 1.0275526 3.90126985 0.25 6.6875 C-1 9 -1 9 -4 10 C-2.8905928 6.51329166 -1.73662334 3.22515763 0 0 Z " fill="#2A3850" transform="translate(870,785)"/>
<path d="M0 0 C-0.33 0.99 -0.66 1.98 -1 3 C-4.63 2.67 -8.26 2.34 -12 2 C-12 1.67 -12 1.34 -12 1 C-7.915021 0.45533613 -4.1274515 0 0 0 Z " fill="#1666FA" transform="translate(704,439)"/>
<path d="M0 0 C0.66 0.99 1.32 1.98 2 3 C0.68 5.31 -0.64 7.62 -2 10 C-2.66 10 -3.32 10 -4 10 C-2.8905928 6.51329166 -1.73662334 3.22515763 0 0 Z " fill="#222D48" transform="translate(490,823)"/>
<path d="M0 0 C0.33 1.32 0.66 2.64 1 4 C0.01 4.495 0.01 4.495 -1 5 C-1.33 5.99 -1.66 6.98 -2 8 C-2.99 8 -3.98 8 -5 8 C-3.62845496 5.04590299 -2.01136276 2.55991624 0 0 Z " fill="#253048" transform="translate(382,767)"/>
<path d="M0 0 C1.98 0 3.96 0 6 0 C5.34 1.65 4.68 3.3 4 5 C2.64567325 3.68799596 1.31266518 2.35368596 0 1 C0 0.67 0 0.34 0 0 Z " fill="#1A263B" transform="translate(279,767)"/>
<path d="M0 0 C0.99 0.33 1.98 0.66 3 1 C2.67 2.32 2.34 3.64 2 5 C0.35 5.33 -1.3 5.66 -3 6 C-2.34 5.34 -1.68 4.68 -1 4 C-0.3574765 1.93125966 -0.3574765 1.93125966 0 0 Z " fill="#0B54E4" transform="translate(897,877)"/>
<path d="M0 0 C1.5625 1.25 1.5625 1.25 3 3 C2.6875 5.1875 2.6875 5.1875 2 7 C1.34 6.67 0.68 6.34 0 6 C-0.6875 3.5 -0.6875 3.5 -1 1 C-0.67 0.67 -0.34 0.34 0 0 Z " fill="#202E4A" transform="translate(554,837)"/>
<path d="M0 0 C0.99 0.33 1.98 0.66 3 1 C1.625 2.5 1.625 2.5 0 4 C-0.66 4 -1.32 4 -2 4 C-2.33 4.99 -2.66 5.98 -3 7 C-3.66 6.67 -4.32 6.34 -5 6 C-3.35 4.02 -1.7 2.04 0 0 Z " fill="#1762F2" transform="translate(685,510)"/>
<path d="M0 0 C0.598125 0.20625 1.19625 0.4125 1.8125 0.625 C1.1525 0.625 0.4925 0.625 -0.1875 0.625 C-0.5175 1.615 -0.8475 2.605 -1.1875 3.625 C-3.25 4.3125 -3.25 4.3125 -5.1875 4.625 C-5.1875 3.635 -5.1875 2.645 -5.1875 1.625 C-2.1875 -0.375 -2.1875 -0.375 0 0 Z " fill="#1F71FB" transform="translate(502.1875,318.375)"/>
</svg>
